 <svg
            xmlns="http://www.w3.org/2000/svg"
            width="98.057"
            height="32.864"
            viewBox="0 0 98.057 32.864"
          >
            <g
              id="Group_3849"
              data-name="Group 3849"
              transform="translate(-183.445 -165.698)"
            >
              <g
                id="Group_3851"
                data-name="Group 3851"
                transform="translate(183.445 165.698)"
              >
                <rect
                  id="Rectangle_2295"
                  data-name="Rectangle 2295"
                  width="3.916"
                  height="6.89"
                  transform="translate(0 2.76)"
                  fill="#9c3353"
                ></rect>
                <path
                  id="Path_5928"
                  data-name="Path 5928"
                  d="M3095.313,958.307h0a2.759,2.759,0,0,1,2.759-2.76h1.157v5.519h-1.157A2.759,2.759,0,0,1,3095.313,958.307Z"
                  transform="translate(-3095.313 -955.548)"
                  fill="#691a47"
                ></path>
                <path
                  id="Path_5929"
                  data-name="Path 5929"
                  d="M2364.757,1016.258h0c6.225,5.339,6.225,14,0,19.336h0a17.375,17.375,0,0,1-11.271,4h-78.8a3.112,3.112,0,0,1-3.321-2.849v-24.5h82.117A17.374,17.374,0,0,1,2364.757,1016.258Z"
                  transform="translate(-2271.369 -1006.735)"
                  fill="#9c3353"
                ></path>
              </g>
              <text
                id="Tax_benefits"
                data-name="Tax benefits"
                transform="translate(194.406 189.295)"
                fill="#fff"
                font-size="12"
                font-weight="800"
              >
                <tspan x="0" y="0" style="letter-spacing: 0.5px">
                  Tax benefits
                </tspan>
              </text>
            </g>
          </svg>